<?xml version="1.0" encoding="iso-8859-1"?>
<!-- Generator: Adobe Illustrator 16.0.0, SVG Export Plug-In . SVG Version: 6.00 Build 0)  -->
<!DOCTYPE svg PUBLIC "-//W3C//DTD SVG 1.1//EN" "http://www.w3.org/Graphics/SVG/1.1/DTD/svg11.dtd">
<svg version="1.1" id="Layer_1" xmlns="http://www.w3.org/2000/svg" xmlns:xlink="http://www.w3.org/1999/xlink" x="0px" y="0px"
	 width="32px" height="30.333px" viewBox="0 0 32 30.333" style="enable-background:new 0 0 32 30.333;" xml:space="preserve">
<path d="M-8.05,21.286h-4.722c-3.358,0-3.894-1.485-3.894-2.863c0-0.654,0.041-1.732,0.081-3.054h7.888
	c1.18,0,3.433-0.483,3.433-2.643c0-2.158-1.04-3.572-2.433-3.572h-8.79c-0.009-3.113-0.211-6.216-3.252-6.216
	c-1.258,0-2.278,0.516-2.709,1.799c-0.564,1.687-0.415,3.66-0.408,5.415c0.002,0.333,0.003,0.669,0.004,1.003
	c0.004,1.149,0.027,2.306,0.033,3.461c0.003,1.244,0.004,2.487,0.004,3.73c0,6.962,6.328,8.935,7.542,8.935
	c1.214,0,5.969,0.113,6.827,0.113c0.859,0,3.324-0.228,3.324-2.721S-6.871,21.286-8.05,21.286z"/>
<path d="M21.685,10.855h-3.872V8.314c0-0.953,0.632-1.176,1.077-1.176c0.444,0,2.732,0,2.732,0V2.947l-3.764-0.016
	c-4.178,0-5.129,3.127-5.129,5.129v2.795h-2.415v4.32h2.415c0,5.545,0,12.225,0,12.225h5.083c0,0,0-6.746,0-12.225h3.429
	L21.685,10.855z"/>
<path d="M27.725,47.846c0.18-0.822,0.273-1.673,0.273-2.547c0-6.553-5.312-11.866-11.867-11.866c-0.691,0-1.369,0.061-2.029,0.174
	c-1.061-0.669-2.315-1.058-3.661-1.058c-3.801,0-6.882,3.082-6.882,6.884c0,1.27,0.346,2.459,0.946,3.48
	c-0.158,0.771-0.24,1.569-0.24,2.386c0,6.556,5.312,11.867,11.867,11.867c0.744,0,1.468-0.068,2.173-0.198
	c0.969,0.521,2.076,0.816,3.252,0.816c3.803,0,6.883-3.081,6.883-6.883C28.44,49.805,28.182,48.767,27.725,47.846z M22.219,50.971
	c-0.549,0.776-1.361,1.392-2.412,1.829c-1.041,0.433-2.287,0.652-3.708,0.652c-1.705,0-3.133-0.3-4.249-0.892
	c-0.798-0.431-1.455-1.013-1.954-1.734c-0.504-0.726-0.759-1.447-0.759-2.145c0-0.434,0.166-0.812,0.494-1.119
	c0.325-0.307,0.741-0.461,1.239-0.461c0.408,0,0.76,0.121,1.046,0.362c0.272,0.232,0.506,0.575,0.695,1.018
	c0.211,0.483,0.439,0.889,0.681,1.207c0.233,0.31,0.568,0.568,0.996,0.771c0.43,0.203,1.011,0.307,1.724,0.307
	c0.981,0,1.786-0.209,2.391-0.623c0.592-0.402,0.877-0.887,0.877-1.48c0-0.468-0.15-0.836-0.457-1.125
	c-0.324-0.303-0.75-0.536-1.268-0.699c-0.539-0.167-1.271-0.35-2.176-0.54c-1.232-0.263-2.278-0.576-3.11-0.93
	c-0.852-0.361-1.537-0.864-2.039-1.491c-0.509-0.64-0.768-1.438-0.768-2.38c0-0.896,0.271-1.704,0.806-2.4
	c0.53-0.692,1.306-1.231,2.304-1.599c0.985-0.364,2.156-0.549,3.482-0.549c1.06,0,1.992,0.123,2.769,0.363
	c0.783,0.244,1.441,0.572,1.959,0.978c0.523,0.408,0.912,0.843,1.154,1.297c0.246,0.457,0.371,0.912,0.371,1.354
	c0,0.425-0.164,0.81-0.486,1.146c-0.326,0.338-0.736,0.509-1.219,0.509c-0.439,0-0.783-0.108-1.021-0.317
	c-0.223-0.197-0.453-0.504-0.709-0.944c-0.295-0.562-0.654-1.005-1.064-1.317c-0.4-0.304-1.066-0.457-1.982-0.457
	c-0.85,0-1.542,0.171-2.056,0.509c-0.495,0.323-0.736,0.695-0.736,1.137c0,0.271,0.078,0.496,0.238,0.69
	c0.168,0.207,0.406,0.386,0.707,0.538c0.312,0.156,0.634,0.28,0.955,0.369c0.33,0.093,0.883,0.228,1.642,0.402
	c0.961,0.207,1.844,0.438,2.624,0.688c0.791,0.254,1.473,0.563,2.031,0.928c0.568,0.37,1.018,0.844,1.338,1.412
	c0.32,0.569,0.482,1.273,0.482,2.09C23.049,49.3,22.768,50.191,22.219,50.971z"/>
<path d="M28.476,77.428c-0.918,0.407-1.904,0.683-2.94,0.806c1.058-0.633,1.869-1.637,2.251-2.832
	c-0.989,0.587-2.084,1.013-3.25,1.242c-0.935-0.995-2.265-1.616-3.737-1.616c-2.827,0-5.119,2.292-5.119,5.119
	c0,0.401,0.045,0.792,0.133,1.167c-4.255-0.214-8.027-2.252-10.552-5.349C4.82,76.72,4.568,77.6,4.568,78.538
	c0,1.775,0.903,3.343,2.277,4.261c-0.839-0.026-1.629-0.257-2.319-0.641c0,0.021,0,0.043,0,0.065c0,2.479,1.765,4.549,4.106,5.02
	c-0.43,0.116-0.882,0.18-1.349,0.18c-0.33,0-0.65-0.032-0.963-0.093c0.651,2.034,2.542,3.515,4.781,3.556
	c-1.752,1.373-3.959,2.191-6.357,2.191c-0.413,0-0.82-0.024-1.221-0.071c2.266,1.453,4.956,2.3,7.848,2.3
	c9.416,0,14.565-7.801,14.565-14.565c0-0.222-0.005-0.443-0.015-0.662C26.922,79.356,27.791,78.454,28.476,77.428z"/>
<g>
	<path d="M53.573,14.323c0,0,2.382-0.178,2.382-2.971c0-2.792-1.948-4.155-4.417-4.155h-4.543h-0.133h-3.445v15.607h3.445h0.133
		h4.543c0,0,4.958,0.157,4.958-4.606C56.496,18.198,56.712,14.323,53.573,14.323z M46.995,9.972h3.959h0.584
		c0,0,1.104,0,1.104,1.623c0,1.624-0.649,1.859-1.386,1.859h-4.262V9.972z M51.309,20.031c-0.121,0.003-0.223,0-0.291,0h-4.023
		V15.86h4.543c0,0,1.646-0.021,1.646,2.144C53.183,19.829,51.955,20.018,51.309,20.031z"/>
	<path d="M63.109,11.168c-6.002,0-5.997,5.997-5.997,5.997s-0.412,5.967,5.997,5.967c0,0,5.342,0.305,5.342-4.15h-2.748
		c0,0,0.092,1.678-2.502,1.678c0,0-2.746,0.184-2.746-2.716h8.086C68.541,17.943,69.427,11.168,63.109,11.168z M60.423,15.86
		c0,0,0.336-2.406,2.746-2.406c2.412,0,2.381,2.406,2.381,2.406H60.423z"/>
	<rect x="59.751" y="8.116" width="6.439" height="1.923"/>
</g>
</svg>
